<svg width="16" height="17" viewBox="0 0 16 17" fill="none" xmlns="http://www.w3.org/2000/svg">
<g id="Heart">
<g id="Vector">
<path fill-rule="evenodd" clip-rule="evenodd" d="M13.7754 3.48377C15.4087 5.02421 15.4081 7.52184 13.7741 9.06165L8.00002 14.5L2.22585 9.06164C0.591855 7.52183 0.591314 5.0242 2.22464 3.48376C3.63981 2.09101 5.46595 2.18545 7.18964 3.71392C7.46301 3.95633 7.73381 4.23481 7.99998 4.54915C8.26615 4.23481 8.53695 3.95633 8.81032 3.71392C10.534 2.18545 12.3602 2.09101 13.7754 3.48377ZM8.00002 12.9108L12.9673 8.23235C14.1217 7.14448 14.1221 5.40103 12.9681 4.31274L12.9592 4.30428L12.9504 4.29564C12.3708 3.72525 11.7906 3.57446 11.2139 3.67929C10.5784 3.7948 9.76564 4.25746 8.89624 5.28419L7.99998 6.34265L7.10372 5.28419C6.23431 4.25745 5.42158 3.7948 4.7861 3.67929C4.2094 3.57446 3.62919 3.72524 3.04961 4.29564L3.04083 4.30428L3.03186 4.31273C1.87803 5.40095 1.87831 7.14424 3.0325 8.23213C3.03258 8.2322 3.03242 8.23206 3.0325 8.23213L8.00002 12.9108Z" fill="#DD8A08"/>
<path d="M11.5 3.50003C10.7 3.50003 8.8333 4.83336 7.99997 5.50003C7.99997 5.00003 4.99998 2.00001 2.99998 3.00001C0.99998 4.00001 2 7 2 8C2 8.8 6.16664 12 7.99997 13.5L8.99997 12.5C13.5 9.5 14 7.20003 14 6.00003C14 4.50003 12.5 3.50003 11.5 3.50003Z" fill="#DD8A08"/>
</g>
</g>
</svg>
