<svg width="52" height="38" viewBox="0 0 52 38" fill="none" xmlns="http://www.w3.org/2000/svg">
<g id="Vector">
<path d="M10.9069 17.956C11.1547 17.956 11.4 17.9097 11.6289 17.8194C11.8578 17.7292 12.0658 17.5969 12.241 17.4302C12.4162 17.2635 12.5552 17.0656 12.65 16.8477C12.7448 16.6298 12.7936 16.3963 12.7936 16.1605C12.7936 12.8269 14.185 9.62988 16.6617 7.27266C19.1383 4.91544 22.4975 3.59117 26 3.59117C29.5025 3.59117 32.8617 4.91544 35.3383 7.27266C37.8151 9.62988 39.2064 12.8269 39.2064 16.1605C39.2113 16.6337 39.4123 17.0858 39.7656 17.4187C40.1188 17.7515 40.5959 17.9383 41.0931 17.9383C41.5901 17.9383 42.0672 17.7515 42.4204 17.4187C42.7737 17.0858 42.9747 16.6337 42.9796 16.1605C42.9796 14.0383 42.5404 11.9369 41.6871 9.97617C40.8337 8.01549 39.5831 6.23395 38.0064 4.73331C36.4296 3.23266 34.5578 2.04229 32.4978 1.23015C30.4377 0.418004 28.2299 0 26 0C23.7701 0 21.5623 0.418004 19.5022 1.23015C17.4421 2.04229 15.5703 3.23266 13.9936 4.73331C12.4169 6.23395 11.1662 8.01549 10.3129 9.97617C9.4596 11.9369 9.02041 14.0383 9.02041 16.1605C9.02041 16.6367 9.21917 17.0934 9.57295 17.4302C9.92674 17.7669 10.4066 17.956 10.9069 17.956Z" fill="white"/>
<path d="M50.1347 21.5472H33.5488C34.7769 19.9955 35.4401 18.1043 35.438 16.1605C35.438 13.7794 34.4455 11.4958 32.6789 9.81204C30.9122 8.12832 28.5161 7.18242 26.0177 7.18242C23.5195 7.18242 21.1234 8.12832 19.3566 9.81204C17.59 11.4958 16.5975 13.7794 16.5975 16.1605C16.5975 16.6368 16.796 17.0935 17.1494 17.4303C17.5027 17.767 17.9819 17.9562 18.4816 17.9562C18.9814 17.9562 19.4607 17.767 19.8139 17.4303C20.1673 17.0935 20.3657 16.6368 20.3657 16.1605C20.3657 15.0951 20.6972 14.0536 21.3182 13.1677C21.9393 12.2818 22.822 11.5913 23.8548 11.1836C24.8876 10.7758 26.0241 10.6692 27.1205 10.877C28.2168 11.0848 29.2241 11.5979 30.0144 12.3512C30.805 13.1046 31.3433 14.0644 31.5615 15.1094C31.7795 16.1543 31.6676 17.2374 31.2398 18.2217C30.8119 19.206 30.0876 20.0475 29.1581 20.6394C28.2285 21.2313 27.1357 21.5472 26.0179 21.5472H1.90293C1.65394 21.5449 1.40692 21.5895 1.17615 21.6788C0.945391 21.7679 0.735469 21.8998 0.558515 22.0667C0.381563 22.2338 0.241089 22.4324 0.145224 22.6514C0.0493582 22.8705 0 23.1055 0 23.3429C0 23.58 0.0493582 23.815 0.145224 24.0341C0.241089 24.2532 0.381563 24.4518 0.558515 24.6189C0.735469 24.7858 0.945391 24.9177 1.17615 25.0068C1.40692 25.0961 1.65394 25.1407 1.90293 25.1384H50.1347C50.6311 25.1337 51.1054 24.9424 51.4547 24.6061C51.804 24.27 52 23.8159 52 23.3429C52 22.8696 51.804 22.4155 51.4547 22.0794C51.1054 21.7431 50.6311 21.5519 50.1347 21.5472Z" fill="white"/>
<path d="M12.5574 36.4847H9.17135L8.50381 38H7.20744L10.2549 31.4523H11.4932L14.5503 38H13.2346L12.5574 36.4847ZM12.1414 35.5306L10.8644 32.6683L9.59702 35.5306H12.1414Z" fill="white"/>
<path d="M15.3922 33.005H16.6015V38H15.3922V33.005ZM16.0017 32.1819C15.7824 32.1819 15.5986 32.1164 15.4503 31.9855C15.3019 31.8483 15.2278 31.6799 15.2278 31.4804C15.2278 31.2808 15.3019 31.1156 15.4503 30.9846C15.5986 30.8474 15.7824 30.7788 16.0017 30.7788C16.221 30.7788 16.4048 30.8443 16.5532 30.9753C16.7015 31.1 16.7757 31.259 16.7757 31.4523C16.7757 31.6581 16.7015 31.8327 16.5532 31.9761C16.4113 32.1133 16.2275 32.1819 16.0017 32.1819Z" fill="white"/>
<path d="M19.4367 33.7346C19.785 33.2108 20.3977 32.9489 21.2749 32.9489V34.062C21.1717 34.0433 21.0782 34.034 20.9943 34.034C20.5235 34.034 20.1559 34.168 19.8914 34.4362C19.627 34.6981 19.4948 35.0785 19.4948 35.5774V38H18.2855V33.005H19.4367V33.7346Z" fill="white"/>
<path d="M27.2649 34.5952C27.6389 34.7137 27.9356 34.9132 28.1549 35.1938C28.3742 35.4682 28.4838 35.8112 28.4838 36.2228C28.4838 36.7902 28.2581 37.2299 27.8066 37.5417C27.3551 37.8472 26.6973 38 25.833 38H22.4663V31.4523H25.6396C26.4393 31.4523 27.0552 31.6051 27.4874 31.9106C27.9195 32.21 28.1356 32.6247 28.1356 33.1547C28.1356 33.479 28.0582 33.7658 27.9034 34.0153C27.7486 34.2647 27.5357 34.458 27.2649 34.5952ZM23.724 32.4064V34.2117H25.5041C25.9427 34.2117 26.2781 34.1369 26.5103 33.9872C26.7489 33.8313 26.8682 33.6068 26.8682 33.3137C26.8682 33.0144 26.7489 32.7899 26.5103 32.6402C26.2781 32.4844 25.9427 32.4064 25.5041 32.4064H23.724ZM25.7556 37.0459C26.7295 37.0459 27.2165 36.731 27.2165 36.1012C27.2165 35.4713 26.7295 35.1564 25.7556 35.1564H23.724V37.0459H25.7556Z" fill="white"/>
<path d="M35.9403 31.4523V38H34.9051L31.1708 33.5663V38H29.9228V31.4523H30.958L34.6923 35.886V31.4523H35.9403Z" fill="white"/>
<path d="M42.6502 34.5952C43.0243 34.7137 43.321 34.9132 43.5402 35.1938C43.7595 35.4682 43.8692 35.8112 43.8692 36.2228C43.8692 36.7902 43.6434 37.2299 43.192 37.5417C42.7405 37.8472 42.0826 38 41.2184 38H37.8517V31.4523H41.0249C41.8247 31.4523 42.4406 31.6051 42.8727 31.9106C43.3048 32.21 43.5209 32.6247 43.5209 33.1547C43.5209 33.479 43.4435 33.7658 43.2887 34.0153C43.1339 34.2647 42.9211 34.458 42.6502 34.5952ZM39.1094 32.4064V34.2117H40.8895C41.328 34.2117 41.6634 34.1369 41.8956 33.9872C42.1342 33.8313 42.2536 33.6068 42.2536 33.3137C42.2536 33.0144 42.1342 32.7899 41.8956 32.6402C41.6634 32.4844 41.328 32.4064 40.8895 32.4064H39.1094ZM41.141 37.0459C42.1149 37.0459 42.6018 36.731 42.6018 36.1012C42.6018 35.4713 42.1149 35.1564 41.141 35.1564H39.1094V37.0459H41.141Z" fill="white"/>
</g>
</svg>
