<svg width="22" height="22" viewBox="0 0 22 22" fill="none" xmlns="http://www.w3.org/2000/svg">
<g id="State=State6" clip-path="url(#clip0_141_2583)">
<path id="Vector" d="M1.83331 10.0833H20.1666V18.3333C20.1666 18.5764 20.0701 18.8096 19.8982 18.9815C19.7263 19.1534 19.4931 19.25 19.25 19.25H2.74998C2.50686 19.25 2.27371 19.1534 2.1018 18.9815C1.92989 18.8096 1.83331 18.5764 1.83331 18.3333V10.0833ZM15.5833 2.75H19.25C19.4931 2.75 19.7263 2.84658 19.8982 3.01848C20.0701 3.19039 20.1666 3.42355 20.1666 3.66667V8.25H1.83331V3.66667C1.83331 3.42355 1.92989 3.19039 2.1018 3.01848C2.27371 2.84658 2.50686 2.75 2.74998 2.75H6.41665V0.916666H8.24998V2.75H13.75V0.916666H15.5833V2.75Z" fill="#A2A2A2"/>
</g>
<defs>
<clipPath id="clip0_141_2583">
<rect width="22" height="22" fill="white"/>
</clipPath>
</defs>
</svg>
