<svg width="18" height="19" viewBox="0 0 18 19" fill="none" xmlns="http://www.w3.org/2000/svg">
<g id="State=Frame" clip-path="url(#clip0_141_3927)">
<path id="Vector" d="M12.75 4.75H16.025C16.2874 4.75 16.5 4.96265 16.5 5.22496V5.22496C16.5 5.48728 16.2874 5.69992 16.025 5.69992H15V16.625C15 16.835 14.921 17.0363 14.7803 17.1848C14.6397 17.3333 14.4489 17.4167 14.25 17.4167H3.75C3.55109 17.4167 3.36032 17.3333 3.21967 17.1848C3.07902 17.0363 3 16.835 3 16.625V5.69992H1.97496C1.71265 5.69992 1.5 5.48728 1.5 5.22496V5.22496C1.5 4.96265 1.71265 4.75 1.97496 4.75H5.25V2.375C5.25 2.16504 5.32902 1.96367 5.46967 1.81521C5.61032 1.66674 5.80109 1.58333 6 1.58333H12C12.1989 1.58333 12.3897 1.66674 12.5303 1.81521C12.671 1.96367 12.75 2.16504 12.75 2.375V4.75ZM14 5.69992H4V16.3311H14V5.69992ZM6.30015 2.54484V4.74992H11.7001V2.54484H6.30015Z" fill="#222222"/>
</g>
<defs>
<clipPath id="clip0_141_3927">
<rect width="18" height="19" fill="white"/>
</clipPath>
</defs>
</svg>
