<svg width="18" height="18" viewBox="0 0 18 18" fill="none" xmlns="http://www.w3.org/2000/svg">
<g id="State=Dislike" clip-path="url(#clip0_141_2609)">
<path id="Vector" d="M7.05 12H2.25C1.85218 12 1.47065 11.842 1.18934 11.5607C0.908036 11.2794 0.750001 10.8978 0.750001 10.5V8.922C0.749799 8.72598 0.788019 8.53182 0.862501 8.3505L3.1845 2.715C3.24096 2.57756 3.33697 2.46 3.46035 2.37721C3.58373 2.29442 3.72892 2.25015 3.8775 2.25H16.5C16.6989 2.25 16.8897 2.32902 17.0303 2.46967C17.171 2.61032 17.25 2.80109 17.25 3V10.5C17.25 10.6989 17.171 10.8897 17.0303 11.0303C16.8897 11.171 16.6989 11.25 16.5 11.25H13.8885C13.7684 11.25 13.6501 11.2788 13.5435 11.334C13.4368 11.3892 13.345 11.4692 13.2758 11.5673L9.186 17.3618C9.1343 17.435 9.05806 17.4873 8.9711 17.5092C8.88414 17.5311 8.79222 17.5211 8.712 17.481L7.3515 16.8C6.96862 16.6086 6.66275 16.292 6.4847 15.9028C6.30665 15.5135 6.26715 15.0751 6.37275 14.6603L7.05 12ZM12.75 10.059V3.75H4.38L2.25 8.922V10.5H7.05C7.27845 10.5 7.50388 10.5522 7.70908 10.6527C7.91428 10.7531 8.09383 10.899 8.23404 11.0794C8.37425 11.2597 8.47141 11.4698 8.51811 11.6934C8.56481 11.917 8.55981 12.1483 8.5035 12.3698L7.82625 15.0308C7.80505 15.1138 7.81292 15.2015 7.84853 15.2794C7.88415 15.3573 7.94536 15.4207 8.022 15.459L8.51775 15.7065L12.0502 10.7025C12.2377 10.437 12.4778 10.2195 12.75 10.059V10.059ZM14.25 9.75H15.75V3.75H14.25V9.75Z" fill="black"/>
</g>
<defs>
<clipPath id="clip0_141_2609">
<rect width="18" height="18" fill="white"/>
</clipPath>
</defs>
</svg>
