<svg width="25" height="24" viewBox="0 0 25 24" fill="none" xmlns="http://www.w3.org/2000/svg">
<g id="Frame" clip-path="url(#clip0_883_4851)">
<path id="Vector" d="M22.9105 11V20C22.9105 20.2652 22.8054 20.5196 22.6183 20.7071C22.4312 20.8946 22.1774 21 21.9128 21H3.95517C3.69057 21 3.43682 20.8946 3.24972 20.7071C3.06263 20.5196 2.95752 20.2652 2.95752 20V11H22.9105ZM22.9105 7H2.95752V4C2.95752 3.73478 3.06263 3.48043 3.24972 3.29289C3.43682 3.10536 3.69057 3 3.95517 3H21.9128C22.1774 3 22.4312 3.10536 22.6183 3.29289C22.8054 3.48043 22.9105 3.73478 22.9105 4V7Z" fill="#C4C4C4"/>
</g>
<defs>
<clipPath id="clip0_883_4851">
<rect width="30.9435" height="35" fill="white" transform="translate(0.962402)"/>
</clipPath>
</defs>
</svg>
