<svg width="59" height="37" viewBox="0 0 59 37" fill="none" xmlns="http://www.w3.org/2000/svg">
<circle cx="18.5" cy="18.5" r="18.5" fill="#266BD3"/>
<path d="M14.544 25.417H12.4474L17.1584 12.3261H19.4403L24.1513 25.417H22.0547L18.3537 14.7039H18.2514L14.544 25.417ZM14.8956 20.2906H21.6967V21.9525H14.8956V20.2906Z" fill="white"/>
<path fill-rule="evenodd" clip-rule="evenodd" d="M44.6464 19.063C44.8417 18.8677 45.1583 18.8677 45.3536 19.063L51 24.7094L56.6464 19.063C56.8417 18.8677 57.1583 18.8677 57.3536 19.063C57.5488 19.2582 57.5488 19.5748 57.3536 19.7701L51.3536 25.7701C51.1583 25.9653 50.8417 25.9653 50.6464 25.7701L44.6464 19.7701C44.4512 19.5748 44.4512 19.2582 44.6464 19.063Z" fill="#C4C4C4" stroke="#C4C4C4" stroke-width="0.5" stroke-linecap="round" stroke-linejoin="round"/>
</svg>
