<svg width="22" height="22" viewBox="0 0 22 22" fill="none" xmlns="http://www.w3.org/2000/svg">
<path d="M16.8822 18.2971C15.1234 19.4126 13.0829 20.0034 11.0002 20.0001C5.60815 20.0001 1.12215 16.1201 0.181152 11.0001C0.611182 8.67078 1.78278 6.54296 3.52115 4.93407L1.09994 2.51517C0.709093 2.1247 0.709156 1.49106 1.09981 1.10041C1.49034 0.709874 2.12374 0.709668 2.51426 1.10021L20.8988 19.4857C21.2894 19.8763 21.2892 20.5098 20.8985 20.9003C20.5079 21.2906 19.8747 21.2905 19.4843 20.9L16.8822 18.2971ZM4.93515 6.35007C3.57616 7.58566 2.62947 9.20885 2.22315 11.0001C2.53545 12.3665 3.16242 13.6412 4.05416 14.7227C4.94589 15.8041 6.07778 16.6625 7.3597 17.2294C8.64163 17.7963 10.0382 18.0561 11.4382 17.9882C12.8383 17.9203 14.2031 17.5264 15.4242 16.8381L13.3962 14.8101C12.5328 15.3539 11.5104 15.5882 10.4964 15.4745C9.48243 15.3608 8.53719 14.906 7.81572 14.1845C7.09425 13.463 6.63938 12.5178 6.52571 11.5038C6.41205 10.4899 6.64634 9.46738 7.19015 8.60407L4.93515 6.35007ZM11.9142 13.3281L8.67215 10.0861C8.49422 10.539 8.45234 11.034 8.55166 11.5104C8.65098 11.9868 8.88717 12.4238 9.23127 12.7679C9.57537 13.1121 10.0124 13.3482 10.4888 13.4476C10.9652 13.5469 11.4602 13.505 11.9132 13.3271L11.9142 13.3281ZM20.4491 14.6361C20.1371 15.1582 19.4225 15.2077 18.9923 14.7777L18.9705 14.756C18.6269 14.4126 18.5853 13.8747 18.8257 13.4526C19.2614 12.6878 19.5824 11.8615 19.7772 11.0001C19.5054 9.80979 18.9944 8.68721 18.2753 7.70056C17.5562 6.71391 16.6439 5.88379 15.594 5.26067C14.5441 4.63755 13.3784 4.23443 12.1679 4.07583C11.1514 3.94265 10.121 3.98421 9.12114 4.1973C8.76707 4.27276 8.3936 4.17952 8.13762 3.92354L8.05366 3.83957C7.54416 3.33007 7.72856 2.47019 8.4293 2.30242C9.25434 2.10488 10.1154 2.00007 11.0002 2.00007C16.3922 2.00007 20.8782 5.88007 21.8192 11.0001C21.5824 12.2871 21.1174 13.5181 20.4491 14.6361ZM10.7232 6.50807C11.3597 6.46873 11.9973 6.56513 12.5937 6.79088C13.1901 7.01663 13.7318 7.36658 14.1827 7.81752C14.6336 8.26846 14.9836 8.81009 15.2093 9.40652C15.4351 10.003 15.5315 10.6406 15.4922 11.2771L10.7232 6.50807Z" fill="#87898E"/>
</svg>
