<svg width="40" height="40" viewBox="0 0 40 40" fill="none" xmlns="http://www.w3.org/2000/svg">
<g id="social">
<rect id="Rectangle 79" width="40" height="40" rx="3" fill="white" fill-opacity="0.12"/>
<g id="Frame" clip-path="url(#clip0_131_1531)">
<path id="Vector" d="M20 10C22.717 10 23.056 10.01 24.122 10.06C25.187 10.11 25.912 10.277 26.55 10.525C27.21 10.779 27.766 11.123 28.322 11.678C28.8305 12.1779 29.224 12.7826 29.475 13.45C29.722 14.087 29.89 14.813 29.94 15.878C29.987 16.944 30 17.283 30 20C30 22.717 29.99 23.056 29.94 24.122C29.89 25.187 29.722 25.912 29.475 26.55C29.2247 27.2178 28.8311 27.8226 28.322 28.322C27.822 28.8303 27.2173 29.2238 26.55 29.475C25.913 29.722 25.187 29.89 24.122 29.94C23.056 29.987 22.717 30 20 30C17.283 30 16.944 29.99 15.878 29.94C14.813 29.89 14.088 29.722 13.45 29.475C12.7823 29.2245 12.1775 28.8309 11.678 28.322C11.1694 27.8222 10.7759 27.2175 10.525 26.55C10.277 25.913 10.11 25.187 10.06 24.122C10.013 23.056 10 22.717 10 20C10 17.283 10.01 16.944 10.06 15.878C10.11 14.812 10.277 14.088 10.525 13.45C10.7752 12.7822 11.1688 12.1773 11.678 11.678C12.1777 11.1692 12.7824 10.7757 13.45 10.525C14.088 10.277 14.812 10.11 15.878 10.06C16.944 10.013 17.283 10 20 10ZM20 15C18.6739 15 17.4021 15.5268 16.4645 16.4645C15.5268 17.4021 15 18.6739 15 20C15 21.3261 15.5268 22.5979 16.4645 23.5355C17.4021 24.4732 18.6739 25 20 25C21.3261 25 22.5979 24.4732 23.5355 23.5355C24.4732 22.5979 25 21.3261 25 20C25 18.6739 24.4732 17.4021 23.5355 16.4645C22.5979 15.5268 21.3261 15 20 15ZM26.5 14.75C26.5 14.4185 26.3683 14.1005 26.1339 13.8661C25.8995 13.6317 25.5815 13.5 25.25 13.5C24.9185 13.5 24.6005 13.6317 24.3661 13.8661C24.1317 14.1005 24 14.4185 24 14.75C24 15.0815 24.1317 15.3995 24.3661 15.6339C24.6005 15.8683 24.9185 16 25.25 16C25.5815 16 25.8995 15.8683 26.1339 15.6339C26.3683 15.3995 26.5 15.0815 26.5 14.75ZM20 17C20.7956 17 21.5587 17.3161 22.1213 17.8787C22.6839 18.4413 23 19.2044 23 20C23 20.7956 22.6839 21.5587 22.1213 22.1213C21.5587 22.6839 20.7956 23 20 23C19.2044 23 18.4413 22.6839 17.8787 22.1213C17.3161 21.5587 17 20.7956 17 20C17 19.2044 17.3161 18.4413 17.8787 17.8787C18.4413 17.3161 19.2044 17 20 17Z" fill="#C1C1C1"/>
</g>
</g>
<defs>
<clipPath id="clip0_131_1531">
<rect width="24" height="24" fill="white" transform="translate(8 8)"/>
</clipPath>
</defs>
</svg>
