<svg width="40" height="40" viewBox="0 0 40 40" fill="none" xmlns="http://www.w3.org/2000/svg">
<g id="social">
<rect id="Rectangle 81" width="40" height="40" rx="3" fill="white" fill-opacity="0.12"/>
<g id="Social Icon">
<path id="Vector" d="M30 20C30 25.5228 25.5228 30 20 30C14.4772 30 10 25.5228 10 20C10 14.4772 14.4772 10 20 10C25.5228 10 30 14.4772 30 20ZM20.3584 17.3825C19.3858 17.787 17.4418 18.6244 14.5266 19.8945C14.0532 20.0827 13.8053 20.2669 13.7827 20.447C13.7445 20.7513 14.1256 20.8711 14.6446 21.0343C14.7152 21.0565 14.7883 21.0795 14.8633 21.1039C15.3739 21.2698 16.0607 21.464 16.4178 21.4717C16.7417 21.4787 17.1032 21.3452 17.5023 21.0712C20.226 19.2325 21.632 18.3032 21.7203 18.2832C21.7826 18.2691 21.8689 18.2513 21.9274 18.3032C21.9858 18.3552 21.9801 18.4536 21.9739 18.48C21.9361 18.641 20.4402 20.0318 19.666 20.7515C19.4246 20.9759 19.2534 21.1351 19.2184 21.1714C19.1401 21.2528 19.0602 21.3298 18.9834 21.4039C18.509 21.8611 18.1533 22.2041 19.0031 22.764C19.4114 23.0331 19.7382 23.2556 20.0642 23.4777C20.4202 23.7201 20.7753 23.9619 21.2347 24.2631C21.3518 24.3398 21.4636 24.4195 21.5725 24.4971C21.9868 24.7925 22.359 25.0579 22.8189 25.0156C23.0861 24.991 23.3621 24.7397 23.5023 23.9903C23.8336 22.2193 24.4847 18.3821 24.6352 16.8009C24.6484 16.6623 24.6318 16.485 24.6185 16.4072C24.6052 16.3294 24.5774 16.2185 24.4762 16.1364C24.3564 16.0392 24.1714 16.0187 24.0887 16.0201C23.7126 16.0267 23.1355 16.2274 20.3584 17.3825Z" fill="#C1C1C1"/>
</g>
</g>
</svg>
