<svg width="40" height="40" viewBox="0 0 40 40" fill="none" xmlns="http://www.w3.org/2000/svg">
<rect width="40" height="40" rx="2" fill="white" fill-opacity="0.12"/>
<g clip-path="url(#clip0_11325_3056)">
<path d="M10.004 30L11.356 25.032C10.4652 23.5049 9.99711 21.768 10 20C10 14.477 14.477 10 20 10C25.523 10 30 14.477 30 20C30 25.523 25.523 30 20 30C18.2328 30.0029 16.4967 29.5352 14.97 28.645L10.004 30ZM16.391 15.308C16.2619 15.316 16.1357 15.35 16.02 15.408C15.9115 15.4694 15.8125 15.5462 15.726 15.636C15.606 15.749 15.538 15.847 15.465 15.942C15.0954 16.423 14.8966 17.0134 14.9 17.62C14.902 18.11 15.03 18.587 15.23 19.033C15.639 19.935 16.312 20.89 17.201 21.775C17.415 21.988 17.624 22.202 17.849 22.401C18.9524 23.3725 20.2673 24.073 21.689 24.447L22.258 24.534C22.443 24.544 22.628 24.53 22.814 24.521C23.1053 24.506 23.3896 24.4271 23.647 24.29C23.813 24.202 23.891 24.158 24.03 24.07C24.03 24.07 24.073 24.042 24.155 23.98C24.29 23.88 24.373 23.809 24.485 23.692C24.568 23.606 24.64 23.505 24.695 23.39C24.773 23.227 24.851 22.916 24.883 22.657C24.907 22.459 24.9 22.351 24.897 22.284C24.893 22.177 24.804 22.066 24.707 22.019L24.125 21.758C24.125 21.758 23.255 21.379 22.724 21.137C22.668 21.1126 22.608 21.0987 22.547 21.096C22.4786 21.089 22.4095 21.0967 22.3443 21.1186C22.2791 21.1405 22.2193 21.1761 22.169 21.223V21.221C22.164 21.221 22.097 21.278 21.374 22.154C21.3325 22.2098 21.2754 22.2519 21.2098 22.2751C21.1443 22.2982 21.0733 22.3013 21.006 22.284C20.9409 22.2666 20.877 22.2445 20.815 22.218C20.691 22.166 20.648 22.146 20.563 22.109L20.558 22.107C19.9859 21.8572 19.4562 21.5198 18.988 21.107C18.862 20.997 18.745 20.877 18.625 20.761C18.2316 20.3842 17.8887 19.958 17.605 19.493L17.546 19.398C17.5036 19.3342 17.4694 19.2653 17.444 19.193C17.406 19.046 17.505 18.928 17.505 18.928C17.505 18.928 17.748 18.662 17.861 18.518C17.9551 18.3983 18.0429 18.2738 18.124 18.145C18.242 17.955 18.279 17.76 18.217 17.609C17.937 16.925 17.647 16.244 17.349 15.568C17.29 15.434 17.115 15.338 16.956 15.319C16.902 15.313 16.848 15.307 16.794 15.303C16.6597 15.2963 16.5251 15.2977 16.391 15.307V15.308Z" fill="#C1C1C1"/>
</g>
<defs>
<clipPath id="clip0_11325_3056">
<rect width="24" height="24" fill="white" transform="translate(8 8)"/>
</clipPath>
</defs>
</svg>
